<svg width="185" height="67" fill="none" xmlns="http://www.w3.org/2000/svg"><path d="M34.099 67c18.501 0 33.5-14.998 33.5-33.5C67.599 14.998 52.6 0 34.099 0 15.597 0 .599 14.998.599 33.5c0 18.502 14.998 33.5 33.5 33.5z" fill="red"/><path fill-rule="evenodd" clip-rule="evenodd" d="M32.364 36.063l6.475 13.603-11.503.076-6.043-16.953h4.164c1.143 0 2.31-.406 3.479-1.243 1.168-.838 1.93-2.234 2.26-4.213a7.987 7.987 0 00.228-1.827c0-2.716-1.37-4.086-4.088-4.086h-4.063l-4.976 28.246H7.582l5.967-33.931h18.56c3.048 0 5.51.634 7.314 1.928 1.828 1.295 2.742 3.325 2.742 6.142 0 .762-.076 1.6-.229 2.538-.38 2.31-1.066 4.162-2.056 5.533-.99 1.37-2.006 2.335-3.073 2.893-1.066.584-2.056.913-2.97 1.066-.89.127-1.397.203-1.473.228zm15.184 3.706H62.02c.102 0 .305-.787.61-2.335.33-1.548.482-3.071.482-4.594 0-2.386-.483-4.162-1.447-5.304-.99-1.168-2.184-1.904-3.58-2.259-1.397-.33-3.276-.507-5.688-.507-7.72.177-12.315 4.593-13.763 13.273a18.65 18.65 0 00-.304 3.477c0 5.557 2.894 8.502 8.684 8.806.177 0 .457 0 .812.025.356.026.66.026.864.026 2.488 0 4.646-.229 6.5-.66 1.853-.431 3.123-.787 3.86-1.091l2.081-5.837c-.66.431-1.853.964-3.554 1.624-1.702.634-3.682 1.015-5.993 1.091-2.87 0-4.291-1.345-4.291-4.01.025-1.142.102-1.725.254-1.725zm6.043-9.695c2.285.177 3.428 1.345 3.428 3.502-.076 1.294-.203 1.954-.38 1.954h-8.355c.051-.913.432-2.056 1.143-3.4.736-1.371 2.107-2.056 4.164-2.056z" fill="#fff"/><path d="M79.998 32.206c0 .558.355.964 1.041 1.167.686.203 1.904.432 3.606.635 1.7.203 3.021.457 3.91.71 2.97.914 4.469 2.69 4.469 5.355 0 .28-.026.71-.102 1.27-.761 5.76-4.697 8.806-11.858 9.136-.38.025-.94.05-1.675.05-2.413 0-4.47-.203-6.17-.634-1.727-.406-2.59-.71-2.59-.838V42.89c.507.457 1.421 1.016 2.792 1.726 1.346.685 3.022 1.066 5.028 1.117 2.133 0 3.707-.229 4.698-.685 1.015-.457 1.6-1.219 1.751-2.31 0-.964-.355-1.675-1.066-2.081-.71-.406-1.625-.71-2.742-.837-1.118-.127-2.463-.305-4.012-.483-1.6-.279-2.844-.786-3.733-1.472-.888-.685-1.32-1.776-1.32-3.299 0-.863.178-1.903.533-3.147.66-2.132 2.285-3.883 4.875-5.228 1.498-.736 3.479-1.167 5.993-1.32.457-.025 1.092-.05 1.955-.05 2.209 0 4.012.152 5.383.482 1.371.33 2.31.584 2.793.787l.533 4.923s-.431-.152-1.244-.457c-.813-.304-1.828-.583-3.047-.837s-2.64-.38-4.266-.38c-3.53 0-5.383.963-5.535 2.867zm21.862-2.766h-6.5l.736-4.087h20.72l-.737 4.086h-6.5l-3.58 20.354h-7.72l3.581-20.354zm14.194 16.75l-2.006 3.603h-5.535l13.432-24.44h6.983l4.976 24.44h-8.176l-.736-3.603h-8.938zm8.024-4.264l-1.473-7.512-4.19 7.512h5.663zm29.936-1.929l4.672 9.796-8.303.051-4.367-12.232h2.996c.838 0 1.676-.305 2.514-.889.838-.609 1.397-1.599 1.65-3.045a6.36 6.36 0 00.153-1.32c0-1.954-.965-2.944-2.946-2.944h-2.92l-3.58 20.354h-7.719l4.317-24.44h13.381c2.209 0 3.961.457 5.281 1.396 1.321.94 1.981 2.411 1.981 4.441 0 .533-.051 1.142-.152 1.828-.28 1.675-.788 2.994-1.473 3.984-.686.99-1.447 1.675-2.235 2.081-.761.406-1.472.66-2.132.761-.686.102-1.041.153-1.118.178zm15.49-10.557h-6.501l.737-4.087h20.719l-.736 4.086h-6.5l-3.581 20.354h-7.719l3.581-20.354z" fill="#000"/></svg>